# xmcd
#
# Track frame offsets: 
#        150
#        12860
#        24382
#        34862
#        47672
#        58567
#        69150
#        79775
#        90815
#        105047
#        117267
#        129827
#        140267
#        150672
#        161622
#        171840
#        182660
#        193435
#        203982
#        215002
#        225392
#        235325
#        246510
#        257852
#
# Disc length: 3598 seconds
#
# Revision: 0
# Processed by: cddbd v1.5.2PL0 Copyright (c) Steve Scherf et al.
# Submitted via: ExactAudioCopy v0.99pb4
#
DISCID=390e0c18
DTITLE=Charlie Monroe - I'm Old Kentucky Bound - Disc 2
DYEAR=2007
DGENRE=Country
TTITLE0=I'm Coming Back But I Don't Know When
TTITLE1=It's Only A Phonograph Record
TTITLE2=Down In The Willow Garden
TTITLE3=Bringin' In The Georgia Mail
TTITLE4=When The Angels Carry Me Home
TTITLE5=If We Ever Meet Again
TTITLE6=Campin' In Canaan's Land
TTITLE7=Don't Forget To Pray
TTITLE8=The Grave At The Foot Of The Mountain
TTITLE9=I See A Bright Light Shining
TTITLE10=End Of Memory Lane
TTITLE11=Shenandoah Waltz
TTITLE12=Sweetheart I Love You Best
TTITLE13=I Know You'll Understand
TTITLE14=What Became Of That Beautiful Picture
TTITLE15=Walking With You In My Dreams
TTITLE16=They Didn't Believe It Was True
TTITLE17=Time Clock Of Life
TTITLE18=Red Rocking Chair
TTITLE19=Without Me Are You Blue
TTITLE20=Our Mansion Is Ready
TTITLE21=A Valley Of Peace
TTITLE22=Rose Lee McFall
TTITLE23=My Saviour's Train
EXTD=
EXTT0=
EXTT1=
EXTT2=
EXTT3=
EXTT4=
EXTT5=
EXTT6=
EXTT7=
EXTT8=
EXTT9=
EXTT10=
EXTT11=
EXTT12=
EXTT13=
EXTT14=
EXTT15=
EXTT16=
EXTT17=
EXTT18=
EXTT19=
EXTT20=
EXTT21=
EXTT22=
EXTT23=
PLAYORDER=
